<svg version="1.1" id="Layer_1" xmlns="http://www.w3.org/2000/svg" xmlns:xlink="http://www.w3.org/1999/xlink" x="0px" y="0px" viewBox="0 0 1024 343" enable-background="new 0 0 1024 343" xml:space="preserve">
<path fill="#000000" opacity="1.000000" stroke="none" 
	d="
M1025.000000,314.000000 
	C1025.000000,323.995422 1025.000000,333.990814 1025.000000,343.993103 
	C719.644653,344.000000 414.289307,344.000000 108.121834,343.834778 
	C106.272377,341.960297 105.535133,339.942963 104.148491,338.592377 
	C95.832138,330.492340 86.446266,323.304626 79.112419,314.414124 
	C49.618980,278.660522 35.611874,237.377457 37.049206,190.929031 
	C37.921967,162.725098 46.188004,137.045212 63.070877,114.352394 
	C89.198402,79.233528 124.420197,63.650440 167.826385,66.899261 
	C196.528290,69.047516 221.292328,80.454720 240.357483,102.240280 
	C258.128479,122.547035 268.255249,146.352585 264.522522,173.701874 
	C260.296204,204.667267 245.500565,230.061371 219.572647,248.367935 
	C218.389481,249.203293 217.408661,250.325226 216.333603,251.313675 
	C216.561020,251.686096 216.788422,252.058502 217.015839,252.430908 
	C218.568375,252.100784 220.149673,251.869156 221.668991,251.425323 
	C237.045441,246.933426 250.301773,238.533035 261.135834,227.110626 
	C283.607361,203.418777 295.009644,175.227859 293.109680,142.114975 
	C291.366333,111.730476 279.638062,85.970375 256.906433,65.848511 
	C226.329315,38.781902 189.871399,28.707434 149.567596,30.642643 
	C125.905342,31.778799 103.792130,38.240208 83.132645,49.594646 
	C50.852234,67.335938 26.928205,93.019890 12.608563,126.979340 
	C8.139192,137.578598 6.179796,149.232224 2.973094,160.374878 
	C2.690228,161.357788 1.675046,162.129959 0.999999,163.000000 
	C1.000000,109.057091 1.000000,55.114178 1.000000,1.000000 
	C83.688599,1.000000 166.377319,1.000000 249.642197,1.354028 
	C251.183975,3.078271 251.976944,4.620238 253.142349,5.791704 
	C263.077667,15.778723 274.258148,24.780897 282.848785,35.805496 
	C311.965363,73.171570 324.145294,115.948624 320.088837,163.170807 
	C317.129639,197.619385 302.835938,226.774765 277.150970,249.859955 
	C252.951584,271.609955 224.014175,280.277405 191.732071,278.163574 
	C169.059860,276.679016 148.529404,269.124969 130.748672,255.019653 
	C106.768623,235.996445 92.687904,210.991989 93.001244,180.300369 
	C93.316116,149.458145 106.779961,123.583603 130.009003,103.070984 
	C133.718338,99.795433 137.682938,96.808952 141.529510,93.688843 
	C141.320465,93.290924 141.111404,92.892998 140.902344,92.495079 
	C139.050476,92.893578 137.160599,93.165939 135.352722,93.710526 
	C120.858574,98.076614 108.367661,106.039925 97.917679,116.694885 
	C75.760094,139.287109 64.149216,166.322845 64.818413,198.407608 
	C65.452446,228.807053 76.038658,254.915802 97.861984,276.023254 
	C121.310677,298.702789 150.024323,310.494995 182.179596,313.721558 
	C216.179932,317.133240 248.383163,310.807037 278.076202,293.484436 
	C306.069092,277.153687 327.620087,254.516159 341.977142,225.474625 
	C355.203369,198.720520 359.220337,170.099533 356.017029,140.606171 
	C351.824463,102.004639 334.357605,69.495865 308.473755,41.202087 
	C294.439636,25.861277 278.048706,13.453773 259.743591,3.567791 
	C258.935760,3.131504 258.571106,1.874632 258.000000,0.999999 
	C513.666687,1.000000 769.333313,1.000000 1025.000000,1.000000 
	C1025.000000,10.743231 1025.000000,20.404631 1024.531372,30.523945 
	C1003.239441,30.973228 982.416077,30.943590 961.592773,30.969034 
	C955.513672,30.976463 954.985168,31.492485 954.984009,37.533443 
	C954.966064,127.490440 954.966003,217.447449 954.982727,307.404449 
	C954.983887,313.498627 955.503967,314.023590 961.530701,314.029694 
	C982.687134,314.051056 1003.843567,314.014557 1025.000000,314.000000 
M831.500000,259.939148 
	C816.668579,259.938843 801.837158,259.953308 787.005737,259.932098 
	C779.437195,259.921265 778.978516,259.477234 778.967590,252.096054 
	C778.944763,236.597656 778.956299,221.099182 778.960815,205.600739 
	C778.963562,196.061401 778.969543,196.051529 788.294373,196.049713 
	C819.457886,196.043625 850.621460,196.060303 881.784973,196.031662 
	C888.311523,196.025665 888.959167,195.363586 888.979980,188.857300 
	C889.021057,176.025375 889.005005,163.193237 888.990601,150.361206 
	C888.981506,142.268478 888.664673,141.947418 880.513794,141.944504 
	C849.516907,141.933411 818.520020,141.945282 787.523132,141.934891 
	C779.281677,141.932144 778.973938,141.629395 778.964478,133.613556 
	C778.948547,120.114929 778.951172,106.616264 778.963074,93.117630 
	C778.970154,85.100662 779.073242,84.990974 787.044067,84.989143 
	C824.206970,84.980598 861.369934,84.991119 898.532837,84.978188 
	C905.658203,84.975708 905.944946,84.692802 905.958252,77.737961 
	C905.982849,64.905960 905.973450,52.073883 905.963684,39.241852 
	C905.957397,30.970966 905.944763,30.955503 897.556885,30.954895 
	C837.229614,30.950523 776.902344,30.952255 716.575073,30.954140 
	C715.242065,30.954180 713.908569,31.008541 712.576172,30.986353 
	C709.412476,30.933670 708.038635,32.570610 708.077515,35.625355 
	C708.098755,37.291283 708.048462,38.957985 708.048462,40.624336 
	C708.046753,128.615479 708.046875,216.606628 708.046936,304.597778 
	C708.046936,305.431030 708.041626,306.264343 708.049438,307.097534 
	C708.109985,313.575684 708.487000,313.984589 714.773254,314.038177 
	C719.105835,314.075073 723.439026,314.047546 727.771912,314.047546 
	C785.099487,314.047607 842.427002,314.049988 899.754578,314.044464 
	C907.997498,314.043671 908.024414,314.008942 908.029907,305.615631 
	C908.038330,292.783569 908.050659,279.951508 908.022766,267.119507 
	C908.008057,260.371307 907.616577,259.958405 900.993103,259.951080 
	C878.162048,259.925842 855.331055,259.939758 831.500000,259.939148 
M586.547180,257.181976 
	C579.761597,258.752777 573.032288,261.341278 566.180786,261.720337 
	C534.444580,263.475952 506.109619,253.588486 480.769501,234.850204 
	C476.942810,232.020508 474.653900,231.896042 471.749817,235.660034 
	C462.496643,247.653259 453.165649,259.589355 443.670288,271.391113 
	C440.748718,275.022308 441.398926,277.241791 444.904327,279.978729 
	C472.271484,301.346527 503.918304,311.361908 537.948669,313.699036 
	C558.836609,315.133575 579.880493,314.949371 600.583984,310.012054 
	C623.269409,304.602051 643.343628,294.744995 657.954956,276.139679 
	C670.989868,259.541595 675.242432,240.069519 673.997803,219.233459 
	C673.258667,206.859451 669.798523,195.307465 663.252014,184.795090 
	C653.652405,169.380142 639.193909,159.630951 622.582764,154.022537 
	C603.703430,147.648300 584.081604,143.503922 564.897644,137.989716 
	C554.058228,134.874069 543.201721,131.548691 532.814575,127.212120 
	C524.082886,123.566704 520.887451,115.458595 522.435486,106.111938 
	C524.423645,94.107330 532.659668,88.171257 543.306519,85.041641 
	C557.497925,80.870132 571.757629,82.800598 585.766113,86.188393 
	C602.600708,90.259659 618.144165,97.469833 632.388672,107.328781 
	C636.001709,109.829491 638.397156,109.852348 640.927795,105.881706 
	C648.981628,93.245316 657.251282,80.746063 665.481384,68.222672 
	C667.608582,64.985779 666.659241,62.544846 663.720276,60.600075 
	C646.924438,49.486027 629.002380,40.932129 609.384094,35.936436 
	C588.950134,30.733017 568.170837,30.316437 547.338318,31.031305 
	C526.730469,31.738462 507.116394,36.592018 489.369537,47.503395 
	C472.576538,57.828300 460.753296,72.165085 454.914673,91.205528 
	C450.627655,105.186234 449.630035,119.470375 452.939270,133.601868 
	C454.802673,141.559174 457.914001,149.614182 462.217651,156.533981 
	C473.299774,174.352737 490.693268,184.533905 510.022644,190.740616 
	C527.894287,196.479263 546.464233,200.005753 564.540771,205.158615 
	C574.395264,207.967712 584.148010,211.527740 593.408813,215.890625 
	C599.863953,218.931686 602.988098,225.006027 603.140381,232.685760 
	C603.377075,244.622543 597.487854,252.067871 586.547180,257.181976 
z"/>
<path fill="#E40914" opacity="1.000000" stroke="none" 
	d="
M0.999999,163.468658 
	C1.675046,162.129959 2.690228,161.357788 2.973094,160.374878 
	C6.179796,149.232224 8.139192,137.578598 12.608563,126.979340 
	C26.928205,93.019890 50.852234,67.335938 83.132645,49.594646 
	C103.792130,38.240208 125.905342,31.778799 149.567596,30.642643 
	C189.871399,28.707434 226.329315,38.781902 256.906433,65.848511 
	C279.638062,85.970375 291.366333,111.730476 293.109680,142.114975 
	C295.009644,175.227859 283.607361,203.418777 261.135834,227.110626 
	C250.301773,238.533035 237.045441,246.933426 221.668991,251.425323 
	C220.149673,251.869156 218.568375,252.100784 217.015839,252.430908 
	C216.788422,252.058502 216.561020,251.686096 216.333603,251.313675 
	C217.408661,250.325226 218.389481,249.203293 219.572647,248.367935 
	C245.500565,230.061371 260.296204,204.667267 264.522522,173.701874 
	C268.255249,146.352585 258.128479,122.547035 240.357483,102.240280 
	C221.292328,80.454720 196.528290,69.047516 167.826385,66.899261 
	C124.420197,63.650440 89.198402,79.233528 63.070877,114.352394 
	C46.188004,137.045212 37.921967,162.725098 37.049206,190.929031 
	C35.611874,237.377457 49.618980,278.660522 79.112419,314.414124 
	C86.446266,323.304626 95.832138,330.492340 104.148491,338.592377 
	C105.535133,339.942963 106.272377,341.960297 107.654846,343.834778 
	C105.958336,344.000000 103.916664,344.000000 101.796791,343.774567 
	C100.524742,342.710022 99.409355,341.719147 98.125015,341.055054 
	C84.028999,333.766266 71.075546,324.747681 59.605366,313.867859 
	C30.196962,285.973114 9.866184,252.870316 2.867767,212.366562 
	C2.717367,211.496109 1.643226,210.785278 1.000003,210.000000 
	C1.000000,194.645767 1.000000,179.291550 0.999999,163.468658 
z"/>
<path fill="#E40914" opacity="1.000000" stroke="none" 
	d="
M257.555847,0.999999 
	C258.571106,1.874632 258.935760,3.131504 259.743591,3.567791 
	C278.048706,13.453773 294.439636,25.861277 308.473755,41.202087 
	C334.357605,69.495865 351.824463,102.004639 356.017029,140.606171 
	C359.220337,170.099533 355.203369,198.720520 341.977142,225.474625 
	C327.620087,254.516159 306.069092,277.153687 278.076202,293.484436 
	C248.383163,310.807037 216.179932,317.133240 182.179596,313.721558 
	C150.024323,310.494995 121.310677,298.702789 97.861984,276.023254 
	C76.038658,254.915802 65.452446,228.807053 64.818413,198.407608 
	C64.149216,166.322845 75.760094,139.287109 97.917679,116.694885 
	C108.367661,106.039925 120.858574,98.076614 135.352722,93.710526 
	C137.160599,93.165939 139.050476,92.893578 140.902344,92.495079 
	C141.111404,92.892998 141.320465,93.290924 141.529510,93.688843 
	C137.682938,96.808952 133.718338,99.795433 130.009003,103.070984 
	C106.779961,123.583603 93.316116,149.458145 93.001244,180.300369 
	C92.687904,210.991989 106.768623,235.996445 130.748672,255.019653 
	C148.529404,269.124969 169.059860,276.679016 191.732071,278.163574 
	C224.014175,280.277405 252.951584,271.609955 277.150970,249.859955 
	C302.835938,226.774765 317.129639,197.619385 320.088837,163.170807 
	C324.145294,115.948624 311.965363,73.171570 282.848785,35.805496 
	C274.258148,24.780897 263.077667,15.778723 253.142349,5.791704 
	C251.976944,4.620238 251.183975,3.078271 250.109177,1.354028 
	C252.370560,1.000000 254.741135,1.000000 257.555847,0.999999 
z"/>
<path fill="#161616" opacity="1.000000" stroke="none" 
	d="
M1025.000000,313.531372 
	C1003.843567,314.014557 982.687134,314.051056 961.530701,314.029694 
	C955.503967,314.023590 954.983887,313.498627 954.982727,307.404449 
	C954.966003,217.447449 954.966064,127.490440 954.984009,37.533443 
	C954.985168,31.492485 955.513672,30.976463 961.592773,30.969034 
	C982.416077,30.943590 1003.239441,30.973228 1024.531372,30.990931 
	C1025.000000,125.020897 1025.000000,219.041794 1025.000000,313.531372 
z"/>
<path fill="#010000" opacity="1.000000" stroke="none" 
	d="
M1.000003,210.468658 
	C1.643226,210.785278 2.717367,211.496109 2.867767,212.366562 
	C9.866184,252.870316 30.196962,285.973114 59.605366,313.867859 
	C71.075546,324.747681 84.028999,333.766266 98.125015,341.055054 
	C99.409355,341.719147 100.524742,342.710022 101.359291,343.774567 
	C67.729095,344.000000 34.458191,344.000000 1.000000,344.000000 
	C1.000000,299.645935 1.000000,255.291626 1.000003,210.468658 
z"/>
<path fill="#161616" opacity="1.000000" stroke="none" 
	d="
M832.000000,259.938965 
	C855.331055,259.939758 878.162048,259.925842 900.993103,259.951080 
	C907.616577,259.958405 908.008057,260.371307 908.022766,267.119507 
	C908.050659,279.951508 908.038330,292.783569 908.029907,305.615631 
	C908.024414,314.008942 907.997498,314.043671 899.754578,314.044464 
	C842.427002,314.049988 785.099487,314.047607 727.771912,314.047546 
	C723.439026,314.047546 719.105835,314.075073 714.773254,314.038177 
	C708.487000,313.984589 708.109985,313.575684 708.049438,307.097534 
	C708.041626,306.264343 708.046936,305.431030 708.046936,304.597778 
	C708.046875,216.606628 708.046753,128.615479 708.048462,40.624336 
	C708.048462,38.957985 708.098755,37.291283 708.077515,35.625355 
	C708.038635,32.570610 709.412476,30.933670 712.576172,30.986353 
	C713.908569,31.008541 715.242065,30.954180 716.575073,30.954140 
	C776.902344,30.952255 837.229614,30.950523 897.556885,30.954895 
	C905.944763,30.955503 905.957397,30.970966 905.963684,39.241852 
	C905.973450,52.073883 905.982849,64.905960 905.958252,77.737961 
	C905.944946,84.692802 905.658203,84.975708 898.532837,84.978188 
	C861.369934,84.991119 824.206970,84.980598 787.044067,84.989143 
	C779.073242,84.990974 778.970154,85.100662 778.963074,93.117630 
	C778.951172,106.616264 778.948547,120.114929 778.964478,133.613556 
	C778.973938,141.629395 779.281677,141.932144 787.523132,141.934891 
	C818.520020,141.945282 849.516907,141.933411 880.513794,141.944504 
	C888.664673,141.947418 888.981506,142.268478 888.990601,150.361206 
	C889.005005,163.193237 889.021057,176.025375 888.979980,188.857300 
	C888.959167,195.363586 888.311523,196.025665 881.784973,196.031662 
	C850.621460,196.060303 819.457886,196.043625 788.294373,196.049713 
	C778.969543,196.051529 778.963562,196.061401 778.960815,205.600739 
	C778.956299,221.099182 778.944763,236.597656 778.967590,252.096054 
	C778.978516,259.477234 779.437195,259.921265 787.005737,259.932098 
	C801.837158,259.953308 816.668579,259.938843 832.000000,259.938965 
z"/>
<path fill="#161616" opacity="1.000000" stroke="none" 
	d="
M586.890747,257.026184 
	C597.487854,252.067871 603.377075,244.622543 603.140381,232.685760 
	C602.988098,225.006027 599.863953,218.931686 593.408813,215.890625 
	C584.148010,211.527740 574.395264,207.967712 564.540771,205.158615 
	C546.464233,200.005753 527.894287,196.479263 510.022644,190.740616 
	C490.693268,184.533905 473.299774,174.352737 462.217651,156.533981 
	C457.914001,149.614182 454.802673,141.559174 452.939270,133.601868 
	C449.630035,119.470375 450.627655,105.186234 454.914673,91.205528 
	C460.753296,72.165085 472.576538,57.828300 489.369537,47.503395 
	C507.116394,36.592018 526.730469,31.738462 547.338318,31.031305 
	C568.170837,30.316437 588.950134,30.733017 609.384094,35.936436 
	C629.002380,40.932129 646.924438,49.486027 663.720276,60.600075 
	C666.659241,62.544846 667.608582,64.985779 665.481384,68.222672 
	C657.251282,80.746063 648.981628,93.245316 640.927795,105.881706 
	C638.397156,109.852348 636.001709,109.829491 632.388672,107.328781 
	C618.144165,97.469833 602.600708,90.259659 585.766113,86.188393 
	C571.757629,82.800598 557.497925,80.870132 543.306519,85.041641 
	C532.659668,88.171257 524.423645,94.107330 522.435486,106.111938 
	C520.887451,115.458595 524.082886,123.566704 532.814575,127.212120 
	C543.201721,131.548691 554.058228,134.874069 564.897644,137.989716 
	C584.081604,143.503922 603.703430,147.648300 622.582764,154.022537 
	C639.193909,159.630951 653.652405,169.380142 663.252014,184.795090 
	C669.798523,195.307465 673.258667,206.859451 673.997803,219.233459 
	C675.242432,240.069519 670.989868,259.541595 657.954956,276.139679 
	C643.343628,294.744995 623.269409,304.602051 600.583984,310.012054 
	C579.880493,314.949371 558.836609,315.133575 537.948669,313.699036 
	C503.918304,311.361908 472.271484,301.346527 444.904327,279.978729 
	C441.398926,277.241791 440.748718,275.022308 443.670288,271.391113 
	C453.165649,259.589355 462.496643,247.653259 471.749817,235.660034 
	C474.653900,231.896042 476.942810,232.020508 480.769501,234.850204 
	C506.109619,253.588486 534.444580,263.475952 566.180786,261.720337 
	C573.032288,261.341278 579.761597,258.752777 586.890747,257.026184 
z"/>
</svg>